@startuml
class GridPaletteBrushes {
    + {static} GetBrushIcon(brushType:Type) : Texture2D
    + GetLastUsedBrush() : GridBrushBase
    + StoreLastUsedBrush(brush:GridBrushBase) : void
    + {static} GetDefaultBrushType() : Type
    + {static} GridBrushAssetChanged(brush:GridBrushBase) : void
}
class "ScriptableSingleton`1"<T> {
}
class "List`1"<T> {
}
class AssetProcessor {
    + <<override>> GetPostprocessOrder() : int
}
"ScriptableSingleton`1" "<GridPaletteBrushes>" <|-- GridPaletteBrushes
GridPaletteBrushes --> "brushes<GridBrushBase>" "List`1"
GridPaletteBrushes +-- AssetProcessor
AssetPostprocessor <|-- AssetProcessor
@enduml
