@startuml
interface IVisibilityTool {
}
class VisibilityToolViewBase {
    + VisibilityToolViewBase()
}
class "TreeViewItemBase`1"<T> {
    + customData : T
    + TreeViewItemBase(id:int, depth:int, name:string, data:T)
}
class VisibilityTreeViewBase {
    + VisibilityTreeViewBase(treeViewState:TreeViewState, multiColumn:MultiColumnHeader)
    + VisibilityTreeViewBase(treeViewState:TreeViewState)
}
class "Action`1"<T> {
}
class "Func`1"<T> {
}
class Styles <<static>> {
}
class VisibilityIconStyle <<static>> {
}
VisualElement <|-- VisibilityToolViewBase
VisibilityToolViewBase o-> "SetOpacityValue<float>" "Action`1"
VisibilityToolViewBase o-> "GetOpacityValue<float>" "Func`1"
TreeViewItem <|-- "TreeViewItemBase`1"
TreeView <|-- VisibilityTreeViewBase
VisibilityToolViewBase +-- Styles
Styles o-> "preLabel" GUIStyle
Styles o-> "preSlider" GUIStyle
Styles o-> "preSliderThumb" GUIStyle
VisibilityTreeViewBase +-- VisibilityIconStyle
VisibilityIconStyle o-> "visibilityOnIcon" GUIContent
VisibilityIconStyle o-> "visibilityOffIcon" GUIContent
@enduml
