@startuml
class Volume {
    + isGlobal : bool <<get>> <<set>>
    + priority : float = 0f
    + blendDistance : float = 0f
    + weight : float = 1f
    + HasInstantiatedProfile() : bool
    + UpdateColliders() : void
}
class "List`1"<T> {
}
MonoBehaviour <|-- Volume
IVolume <|-- Volume
Volume o-> "sharedProfile" VolumeProfile
Volume --> "profile" VolumeProfile
Volume --> "colliders<Collider>" "List`1"
@enduml
