@startuml
class GroupBrush {
    + <<override>> Pick(grid:GridLayout, brushTarget:GameObject, position:BoundsInt, pickStart:Vector3Int) : void
}
class GroupBrushEditor {
}
GridBrush <|-- GroupBrush
GroupBrush --> "gap" Vector3Int
GroupBrush --> "limit" Vector3Int
GridBrushEditor <|-- GroupBrushEditor
GroupBrushEditor --> "icon" Texture2D
@enduml
