@startuml
class VolumeParameterDrawerAttribute <<sealed>> {
    + VolumeParameterDrawerAttribute(parameterType:Type)
}
abstract class VolumeParameterDrawer {
    + <<virtual>> IsAutoProperty() : bool
    + <<virtual>> GetElementHeight(parameter:SerializedDataParameter) : float
    + {abstract} OnGUI(parameter:SerializedDataParameter, title:GUIContent) : bool
}
Attribute <|-- VolumeParameterDrawerAttribute
VolumeParameterDrawerAttribute --> "parameterType" Type
@enduml
